<svg xmlns="http://www.w3.org/2000/svg" viewBox="0 0 923.99 806.49"><defs><style>.cls-1,.cls-5{fill:none;}.cls-1,.cls-2,.cls-3,.cls-5{stroke:#fff;stroke-miterlimit:10;}.cls-1{stroke-width:55px;}.cls-2,.cls-3,.cls-4{fill:#fff;}.cls-2,.cls-5{stroke-width:12px;}.cls-3{stroke-width:10px;}</style></defs><title>rt-logo-white-border-hex</title><g id="Layer_2" data-name="Layer 2"><g id="Layer_2-2" data-name="Layer 2"><polygon class="cls-1" points="892.3 402.56 682.54 778.28 252.24 778.96 31.69 403.93 241.45 28.21 671.75 27.52 892.3 402.56"/></g><g id="Layer_1-2" data-name="Layer 1"><path class="cls-2" d="M304.12,356.19h77.26l-25.3,300.13-11.75-20-57.25-95,16.06-194.17,1.89-1.39Z"/><polygon class="cls-2" points="387.08 288.32 387.07 288.45 382.82 288.45 383 288.32 387.08 288.32"/><polygon class="cls-3" points="508.13 644.19 522.17 644.19 522.08 645.32 508.96 645.32 508.13 644.19"/><polygon class="cls-3" points="545.3 356.19 527.61 576.45 458.22 576.45 449.56 564.69 466.3 356.19 545.3 356.19"/><polygon class="cls-3" points="561.37 156.15 550.74 288.45 471.74 288.45 477.4 218.01 561.37 156.15"/><polygon class="cls-2" points="622.18 344.01 630.08 356.32 303.12 356.19 304.03 345.76 381.82 288.45 581.25 288.45 622.18 344.01"/><polygon class="cls-2" points="626.94 624.4 642.08 645.32 508.12 645.19 458.22 577.45 592.35 577.45 626.94 624.4"/><path class="cls-4" d="M385.67,359.88"/><path class="cls-5" d="M385.67,359.88"/><path class="cls-4" d="M298.8,366.56"/><path class="cls-5" d="M298.8,366.56"/></g></g></svg>